<svg xmlns="http://www.w3.org/2000/svg" width="24" height="18">
  <path d="M23.545 5.944a.282.282 0 0 1 .455.22v9.586A2.251 2.251 0 0 1 21.75 18H2.25A2.251 2.251 0 0 1 0 15.75V6.169a.28.28 0 0 1 .455-.22C1.5 6.764 2.9 7.8 7.678 11.273 8.667 12 10.336 13.514 12 13.5c1.673.014 3.375-1.537 4.327-2.231 4.781-3.469 6.173-4.51 7.218-5.325zM12 12c1.088.019 2.653-1.369 3.441-1.941 6.22-4.514 6.694-4.908 8.128-6.033A1.122 1.122 0 0 0 24 3.141V2.25A2.251 2.251 0 0 0 21.75 0H2.25A2.251 2.251 0 0 0 0 2.25v.891a1.129 1.129 0 0 0 .431.886c1.434 1.12 1.908 1.519 8.128 6.033.788.571 2.353 1.959 3.441 1.94z" fill="#e0e0e0"/>
</svg>