<svg xmlns="http://www.w3.org/2000/svg" width="25" height="25">
  <path d="M12.503 6.09a6.41 6.41 0 1 0 6.408 6.41 6.4 6.4 0 0 0-6.408-6.41zm0 10.577a4.167 4.167 0 1 1 4.166-4.167 4.174 4.174 0 0 1-4.166 4.167zm8.165-10.839a1.495 1.495 0 1 1-1.495-1.5 1.491 1.491 0 0 1 1.495 1.5zm4.244 1.517a7.4 7.4 0 0 0-2.019-5.238A7.445 7.445 0 0 0 17.656.088c-2.064-.117-8.249-.117-10.312 0a7.434 7.434 0 0 0-5.237 2.014A7.424 7.424 0 0 0 .088 7.34c-.113 2.064-.113 8.25 0 10.315a7.4 7.4 0 0 0 2.019 5.238 7.454 7.454 0 0 0 5.237 2.019c2.064.117 8.249.117 10.312 0a7.4 7.4 0 0 0 5.237-2.019 7.448 7.448 0 0 0 2.019-5.238c.117-2.065.117-8.245 0-10.31zm-2.666 12.524a4.218 4.218 0 0 1-2.371 2.377c-1.645.653-5.549.5-7.368.5s-5.728.145-7.368-.5a4.218 4.218 0 0 1-2.376-2.376c-.653-1.646-.5-5.551-.5-7.369s-.145-5.729.5-7.369a4.218 4.218 0 0 1 2.372-2.378c1.645-.653 5.549-.5 7.368-.5s5.728-.145 7.368.5a4.218 4.218 0 0 1 2.376 2.376c.653 1.646.5 5.551.5 7.369s.152 5.73-.501 7.37z" fill="#1c98ff"/>
</svg>