<svg id="Layer_1" data-name="Layer 1" xmlns="http://www.w3.org/2000/svg" width="263.56" height="40.84" viewBox="0 0 263.56 40.84"><title>Helios-Complete-Logo-1e1e1e</title><path d="M84.31,11.25a11.5,11.5,0,0,0-5.63,1.37,9.78,9.78,0,0,0-3.84,3.84,11.44,11.44,0,0,0-1.38,5.67,11.42,11.42,0,0,0,1.36,5.64,9.34,9.34,0,0,0,3.85,3.8,11.86,11.86,0,0,0,5.75,1.36,12.68,12.68,0,0,0,5.08-1,10.77,10.77,0,0,0,3.89-2.71L90.6,26.35A7.5,7.5,0,0,1,88,28.13a8.42,8.42,0,0,1-3.13.61,6,6,0,0,1-6.1-4.85H94.5V22.33c0-3.51-.85-6.23-2.57-8.17s-4.22-2.91-7.62-2.91Zm-5.66,9.17a6,6,0,0,1,1.88-3.76,5.5,5.5,0,0,1,3.81-1.38,5.63,5.63,0,0,1,3.91,1.4,5.15,5.15,0,0,1,1.56,3.74Z" style="fill:#1e1e1e"/><path d="M161.41,23.11a6.84,6.84,0,0,0-2.49-1.94,28.26,28.26,0,0,0-3.67-1.34,16.74,16.74,0,0,1-3.08-1.14,1.67,1.67,0,0,1-1-1.53,1.47,1.47,0,0,1,.77-1.41,4.09,4.09,0,0,1,2.09-.47,10.57,10.57,0,0,1,3,.53,15.43,15.43,0,0,1,3.22,1.43l1.86-3.74a12.68,12.68,0,0,0-3.64-1.68,14.75,14.75,0,0,0-4.17-.6,9.65,9.65,0,0,0-5.76,1.65,5.49,5.49,0,0,0-2.29,4.81,5.17,5.17,0,0,0,1,3.29,6.43,6.43,0,0,0,2.36,1.87,27.12,27.12,0,0,0,3.51,1.25,18.09,18.09,0,0,1,3.23,1.24,1.82,1.82,0,0,1,1,1.67,1.63,1.63,0,0,1-.87,1.5,4.53,4.53,0,0,1-2.28.5,11.72,11.72,0,0,1-3.8-.7,10.54,10.54,0,0,1-3.4-1.94L145.24,30a11.57,11.57,0,0,0,4,2.22,15.43,15.43,0,0,0,4.82.77,10.37,10.37,0,0,0,6-1.67,5.49,5.49,0,0,0,2.38-4.79,5.29,5.29,0,0,0-1-3.42Z" style="fill:#1e1e1e"/><path d="M131.58,11.49a11,11,0,0,0-11.23,10.74,11.24,11.24,0,0,0,22.45,0A11,11,0,0,0,131.58,11.49Zm0,17.39a6.82,6.82,0,0,1-7-6.64h0a7,7,0,0,1,13.93,0,6.81,6.81,0,0,1-6.93,6.65Z" style="fill:#fff"/><path d="M67.45,13.45a7.62,7.62,0,0,0-5.77-2.21q-5.52.09-7.69,4.26V5.07L48.8,3.19V32.76H54V22.28a6.31,6.31,0,0,1,1.5-4.38,5.32,5.32,0,0,1,4.12-1.75,4.7,4.7,0,0,1,3.47,1.29A4.86,4.86,0,0,1,64.37,21V32.76h5.18V19.45A8.41,8.41,0,0,0,67.45,13.45Z" style="fill:#1e1e1e"/><path d="M99.2,32.76h5.18V5.08L99.2,3.19Z" style="fill:#1e1e1e"/><path d="M111.06,32.76h5.2V13.33l-5.2-1.89Z" style="fill:#1e1e1e"/><path d="M7.37,24.54a15.64,15.64,0,0,1-1-5.66A14.9,14.9,0,0,1,21,3.63c8.12,0,14.63,6.84,14.63,15.25a16.08,16.08,0,0,1-1,5.66h3.84a19.73,19.73,0,0,0,.83-5.66C39.2,8.47,31,0,21,0S2.69,8.47,2.69,18.88a19.35,19.35,0,0,0,.84,5.66Z" style="fill:#fff"/><path d="M40,30.3H2a1.82,1.82,0,1,1-.35-3.62h.1a1,1,0,0,1,.25,0H40a1.82,1.82,0,0,1,.25,3.63Z" style="fill:#fff"/><path d="M32.39,31.94H9.5a1.82,1.82,0,0,0-.25,3.63H32.39a1.82,1.82,0,0,0,.25-3.63Z" style="fill:#fff"/><path d="M25,37.21H17a1.82,1.82,0,1,0-.35,3.62H25a1.82,1.82,0,0,0,0-3.63" style="fill:#fff"/><path d="M180.79,11.29h71.89a10.88,10.88,0,0,1,10.88,10.88h0a10.88,10.88,0,0,1-10.88,10.88H180.79a10.88,10.88,0,0,1-10.88-10.88h0A10.88,10.88,0,0,1,180.79,11.29Z" style="fill:#fff"/><path d="M180.36,22.5a3.89,3.89,0,0,1,3.89-3.89h.31a3.47,3.47,0,0,1,3.38,1.91l-1.7.92a1.88,1.88,0,0,0-1.69-1,1.89,1.89,0,0,0-2,2.09,1.93,1.93,0,0,0,1.77,2.08h.23a1.85,1.85,0,0,0,1.69-1l1.7.92a3.51,3.51,0,0,1-3.38,1.91,3.89,3.89,0,0,1-4.19-3.59C180.36,22.74,180.36,22.62,180.36,22.5Z" style="fill:#1e1e1e"/><path d="M189.23,22.5a4.15,4.15,0,1,1,4.41,3.87h-.26a3.88,3.88,0,0,1-4.14-3.6A2.62,2.62,0,0,1,189.23,22.5Zm6.06,0a1.93,1.93,0,0,0-3.85-.28,1.31,1.31,0,0,0,0,.28,1.93,1.93,0,0,0,3.85.28Z" style="fill:#1e1e1e"/><path d="M212.31,22v4.31h-2.18v-4c0-1.22-.55-1.78-1.43-1.78s-1.67.63-1.67,2v3.78h-2.18v-4c0-1.22-.52-1.78-1.43-1.78s-1.65.63-1.65,2v3.78h-2.19V18.73h2.09v.87a3,3,0,0,1,2.37-1,2.83,2.83,0,0,1,2.48,1.23,3.36,3.36,0,0,1,2.71-1.23c1.77,0,3.08,1,3.08,3.4Z" style="fill:#1e1e1e"/><path d="M223.07,22.5a3.68,3.68,0,0,1-3.45,3.88h-.31a3,3,0,0,1-2.27-.91V29h-2.18V18.73H217v.87a2.91,2.91,0,0,1,2.36-1,3.67,3.67,0,0,1,3.72,3.6c0,.1,0,.2,0,.3Zm-2.21,0a1.93,1.93,0,1,0-3.84-.39,1.28,1.28,0,0,0,0,.39,1.93,1.93,0,1,0,3.84.39A2.54,2.54,0,0,0,220.86,22.5Z" style="fill:#1e1e1e"/><path d="M225.18,15.87h2.19V26.26h-2.19Z" style="fill:#1e1e1e"/><path d="M237.35,23.11h-5.7a2,2,0,0,0,2.15,1.52,2.56,2.56,0,0,0,1.89-.73l1.17,1.26a4,4,0,0,1-3.11,1.22c-2.61,0-4.3-1.64-4.3-3.88a3.82,3.82,0,0,1,3.77-3.88h.23a3.73,3.73,0,0,1,3.92,3.53v.37a3.92,3.92,0,0,1,0,.59Zm-5.73-1.27h3.71a1.88,1.88,0,0,0-3.71,0Z" style="fill:#1e1e1e"/><path d="M244.4,25.9a3.1,3.1,0,0,1-1.78.48,2.48,2.48,0,0,1-2.8-2.11,2.41,2.41,0,0,1,0-.6V20.58h-1.16V18.9h1.16V17.06H242V18.9h1.88v1.68H242v3.06a.87.87,0,0,0,.75,1h.19a1.49,1.49,0,0,0,.88-.28Z" style="fill:#1e1e1e"/><path d="M253.48,23.11h-5.7a2,2,0,0,0,2.16,1.52,2.58,2.58,0,0,0,1.89-.73L253,25.16a4,4,0,0,1-3.11,1.22c-2.61,0-4.3-1.64-4.3-3.88a3.82,3.82,0,0,1,3.77-3.88h.23a3.73,3.73,0,0,1,3.92,3.53v.37C253.52,22.69,253.49,22.93,253.48,23.11Zm-5.73-1.27h3.71a1.88,1.88,0,0,0-3.71,0Z" style="fill:#1e1e1e"/></svg>